<?xml version="1.0" encoding="UTF-8"?>
<svg width="35px" height="33px" viewBox="0 0 35 33" version="1.1" xmlns="http://www.w3.org/2000/svg" xmlns:xlink="http://www.w3.org/1999/xlink">
    <!-- Generator: Sketch 52.6 (67491) - http://www.bohemiancoding.com/sketch -->
    <title>chat (1)</title>
    <desc>Created with Sketch.</desc>
    <g id="Page-1" stroke="none" stroke-width="1" fill="none" fill-rule="evenodd">
        <g id="Home-page" transform="translate(-1376.000000, -961.000000)" fill="#FFFFFF">
            <g id="chat-(1)" transform="translate(1376.000000, 961.000000)">
                <path d="M22.7330117,6.79558986 C20.7609357,2.74580585 16.6356433,0.0683415205 12.0083431,0.0683415205 C5.38720273,0.0683415205 0.000545808967,5.45503938 0.000545808967,12.0761388 C0.000545808967,13.8755244 0.384658869,15.6001871 1.14278752,17.2082027 L0.0203996101,22.8528967 C-0.122465887,23.5714433 0.507807018,24.2065528 1.22240741,24.0643805 L6.90421053,22.9346183 C7.66923002,23.2995867 8.46065302,23.5771384 9.27384016,23.7683712 C7.45104288,15.0856359 13.9950195,6.93542924 22.7330117,6.79558986 Z" id="Path"></path>
                <path d="M33.790078,25.9910487 C33.9861598,25.5751673 34.1566569,25.1513949 34.3025244,24.7206924 L34.2650682,24.7206924 C36.82,17.1786292 31.4469883,9.25183626 23.514883,8.86587135 C23.5147466,8.86545965 23.5146784,8.86504795 23.5145419,8.86463626 C16.6894737,8.54831657 11.0190643,14.0441825 11.0190643,20.8589848 C11.0190643,27.4745263 16.3653314,32.85697 22.9411014,32.8665762 C24.7247368,32.8641747 26.434347,32.4780039 28.0285867,31.7174643 C34.2512865,32.9547478 33.7659942,32.8667821 33.9089279,32.8667821 C34.5556433,32.8667821 35.0387524,32.2707836 34.9124659,31.6357427 L33.790078,25.9910487 Z" id="Path"></path>
            </g>
        </g>
    </g>
</svg>