<?xml version="1.0" encoding="UTF-8"?>
<svg width="31px" height="26px" viewBox="0 0 31 26" version="1.1" xmlns="http://www.w3.org/2000/svg" xmlns:xlink="http://www.w3.org/1999/xlink">
    <!-- Generator: Sketch 52.6 (67491) - http://www.bohemiancoding.com/sketch -->
    <title>right-arrow (1)</title>
    <desc>Created with Sketch.</desc>
    <g id="Page-1" stroke="none" stroke-width="1" fill="none" fill-rule="evenodd">
        <g id="Haqqimizda-sertifikatlar" transform="translate(-1339.000000, -1904.000000)" fill="#FFFFFF">
            <g id="Group-4" transform="translate(1135.000000, 1904.000000)">
                <g id="right-arrow-(1)" transform="translate(204.000000, 0.000000)">
                    <path d="M18.861875,0.844669336 C18.3625,0.369037957 17.570625,0.387788208 17.095,0.887794914 C16.61875,1.38780162 16.63875,2.17906223 17.138125,2.65531862 L26.726875,11.7498156 L1.75,11.7498156 C1.06,11.7498156 0.5,12.3098231 0.5,12.9998324 C0.5,13.6898416 1.06,14.2498491 1.75,14.2498491 L26.686875,14.2498491 L17.138125,23.3449711 C16.638125,23.8212275 16.61875,24.6124881 17.095,25.1124948 C17.340625,25.3699983 17.67,25.5 18,25.5 C18.31,25.5 18.62,25.3856235 18.861875,25.1549954 L29.7675,14.7673561 C30.24,14.2954747 30.5,13.6679663 30.5,12.9998324 C30.5,12.3316984 30.24,11.70419 29.745625,11.2110584 L18.861875,0.844669336 Z" id="Path"></path>
                </g>
            </g>
        </g>
    </g>
</svg>