<?xml version="1.0" encoding="UTF-8"?>
<svg width="194px" height="200px" viewBox="0 0 194 200" version="1.1" xmlns="http://www.w3.org/2000/svg" xmlns:xlink="http://www.w3.org/1999/xlink">
    <!-- Generator: Sketch 52.6 (67491) - http://www.bohemiancoding.com/sketch -->
    <title>etika</title>
    <desc>Created with Sketch.</desc>
    <g id="Page-1" stroke="none" stroke-width="1" fill="none" fill-rule="evenodd" opacity="0.3">
        <g id="Haqqimizda" transform="translate(-1032.000000, -787.000000)" fill="#2DAFAB">
            <g id="etika" transform="translate(1112.823394, 894.823394) rotate(36.000000) translate(-1112.823394, -894.823394) translate(1026.323394, 808.323394)">
                <path d="M167.238812,75.3044717 L115.62239,75.3044717 C112.454832,75.3044717 109.887264,77.8690023 109.887264,81.0321786 L109.887264,89.623739 C109.886127,95.0175093 112.069328,100.182319 115.94085,103.943006 L100.068686,103.943006 C97.7968512,98.7259924 92.6429646,95.3514459 86.946758,95.3514459 C81.2505513,95.3514459 76.0963806,98.7257087 73.8248296,103.943006 L57.9526656,103.943006 C61.8239043,100.182319 64.0073886,95.0172256 64.0062523,89.623739 L64.0062523,81.0321786 C64.0062523,77.8687185 61.4383997,75.3044717 58.2711259,75.3044717 L6.65441993,75.3044717 C3.48714608,75.3044717 0.919293511,77.8687185 0.919293511,81.0321786 L0.919293511,89.623739 C0.929520604,97.3953531 5.43625953,104.460792 12.484147,107.755047 C12.9727747,115.259114 19.1976653,121.103146 26.7273624,121.126411 L72.6086578,121.126411 L72.6086578,149.765229 L58.2708418,149.765229 C51.93601,149.765229 46.8005889,154.894006 46.8005889,161.220643 L46.8005889,166.94835 C46.8005889,170.11181 49.3684415,172.676056 52.5357154,172.676056 L121.357516,172.676056 C124.525074,172.676056 127.092643,170.111526 127.092643,166.94835 L127.092643,161.220643 C127.092643,154.894006 121.957222,149.765229 115.62239,149.765229 L101.284574,149.765229 L101.284574,121.126411 L147.165869,121.126411 C154.695567,121.103146 160.920457,115.259114 161.409085,107.755047 C168.457256,104.461076 172.963995,97.3953531 172.973938,89.623739 L172.973938,81.0321786 C172.974222,77.8687185 170.40637,75.3044717 167.238812,75.3044717 Z M6.65441993,89.623739 L6.65441993,81.0321786 L58.2708418,81.0321786 L58.2708418,89.623739 C58.2614669,97.5281334 51.8476593,103.933643 43.9330257,103.943006 L20.992236,103.943006 C13.0776024,103.933643 6.66379476,97.5281334 6.65441993,89.623739 Z M26.7276465,115.39842 C23.0831083,115.39388 19.83487,113.100868 18.6152891,109.670713 L72.6089419,109.670713 L72.6089419,115.39842 L26.7276465,115.39842 Z M121.357801,161.220359 L121.357801,166.948066 L52.5357154,166.948066 L52.5357154,161.220359 C52.5357154,158.056899 55.1035679,155.492652 58.2708418,155.492652 L115.62239,155.492652 C118.789948,155.492652 121.357801,158.057183 121.357801,161.220359 Z M78.3440683,149.764945 L78.3440683,109.670713 C78.3440683,104.925807 82.1957051,101.079153 86.946758,101.079153 C91.6978108,101.079153 95.5494476,104.925807 95.5494476,109.670713 L95.5494476,149.764945 L78.3440683,149.764945 Z M155.278227,109.670713 C154.058362,113.100868 150.810408,115.39388 147.165869,115.39842 L101.284574,115.39842 L101.284574,109.670713 L155.278227,109.670713 Z M167.238812,89.623739 C167.229437,97.5281334 160.815629,103.933643 152.900996,103.943006 L129.960206,103.943006 C122.045573,103.933643 115.631765,97.5281334 115.62239,89.623739 L115.62239,81.0321786 L167.238812,81.0321786 L167.238812,89.623739 Z" id="Shape_327_" fill-rule="nonzero"></path>
                <path d="M32.3059952,63.8553973 C49.7965392,63.8553973 63.9753941,49.6764785 63.9753941,32.1858558 C63.9753941,14.695233 49.7962539,0.516599476 32.3059952,0.516599476 C14.8157364,0.516599476 0.636596286,14.6955183 0.636596286,32.186141 C0.657132123,49.6679219 14.8240078,63.8348614 32.3059952,63.8553973 Z M32.3059952,6.27464608 C46.6163365,6.27464608 58.2173734,17.87545 58.2173734,32.186141 C58.2173734,46.496832 46.6166218,58.0976359 32.3059952,58.0976359 C17.9953686,58.0976359 6.39461696,46.496832 6.39461696,32.186141 C6.41058927,17.8822953 18.0022139,6.29061847 32.3059952,6.27464608 Z" id="Shape_326_" fill-rule="nonzero"></path>
                <path d="M32.9516848,35.1950358 C34.3280423,35.1964406 35.5051273,36.1851442 35.7431863,37.5405025 C35.9812453,38.8955798 35.2119803,40.2262135 33.9182548,40.6965431 C32.6245294,41.1668726 31.180155,40.6409127 30.4918357,39.4493549 C29.6849085,38.1456936 27.98786,37.718913 26.6601261,38.485657 C25.3321112,39.2524009 24.8543069,40.9353603 25.5811315,42.2853804 C26.6084108,44.0116079 28.2149576,45.3180789 30.1146514,45.9721573 L30.1146514,49.375444 C30.1146514,50.9418044 31.3847677,52.2114694 32.9516848,52.2114694 C34.5186019,52.2114694 35.7887182,50.9418044 35.7887182,49.375444 L35.7887182,46.017673 C39.6940659,44.6426474 42.0378366,40.6524321 41.3363075,36.573152 C40.6347783,32.4938719 37.0922808,29.515399 32.9516848,29.5232659 C31.5753273,29.5218611 30.3982423,28.5331576 30.1601833,27.1777993 C29.9221243,25.822441 30.6913893,24.4920882 31.9851148,24.0217587 C33.2788402,23.5514291 34.7232146,24.0773891 35.4115339,25.2689468 C36.218461,26.5726082 37.9155096,26.9993887 39.2432435,26.2326448 C40.5712584,25.4659008 41.0490627,23.7829414 40.3222381,22.4329214 C39.2949588,20.7066939 37.688412,19.4002229 35.7887182,18.7461445 L35.7887182,15.3425768 C35.7887182,13.7762164 34.5186019,12.5065514 32.9516848,12.5065514 C31.3847677,12.5065514 30.1146514,13.7762164 30.1146514,15.3425768 L30.1146514,18.7003478 C26.2093037,20.0753734 23.865533,24.0655887 24.5670621,28.1448688 C25.2685913,32.2241489 28.8110888,35.2029027 32.9516848,35.1950358 Z" id="Shape_325_"></path>
                <path d="M154.004794,0.514162929 C147.780174,0.577480906 141.937559,3.53003811 138.189854,8.50620363 C134.441864,3.53003811 128.59925,0.577480906 122.374915,0.514162929 C111.71834,0.514162929 103.684532,9.50246351 103.684532,21.4242118 C103.684532,34.1636747 113.389083,42.7660779 128.079939,55.7879047 C130.650575,58.0650702 133.385294,60.4894071 136.254756,63.1034128 C137.351777,64.1028101 139.028217,64.1028101 140.125238,63.1034128 C143.000682,60.4894071 145.729419,58.0650702 148.300055,55.7879047 C162.990911,42.7663631 172.695461,34.1639599 172.695461,21.4242118 C172.695461,9.50246351 164.661368,0.514162929 154.004794,0.514162929 Z M144.487116,51.4722997 C142.483934,53.24777 140.384752,55.1190729 138.189854,57.0862085 C135.99866,55.1150799 133.899763,53.243777 131.892593,51.4722997 C117.886272,39.0639727 109.435134,31.5699194 109.435134,21.4242118 C109.435134,12.7872975 114.999149,6.27210581 122.37463,6.27210581 C128.035499,6.56445233 133.095585,9.89948434 135.601841,14.9897363 C136.077569,15.989704 137.083717,16.6277324 138.189854,16.6308698 C139.295991,16.6277324 140.30214,15.989704 140.777868,14.9897363 C143.284124,9.89948434 148.344209,6.56445233 154.005079,6.27210581 C161.38056,6.27210581 166.944574,12.7872975 166.944574,21.4242118 C166.944289,31.5699194 158.493437,39.0636875 144.487116,51.4722997 Z" id="Shape_324_" fill-rule="nonzero"></path>
            </g>
        </g>
    </g>
</svg>