<?xml version="1.0" encoding="UTF-8"?>
<svg width="24px" height="24px" viewBox="0 0 24 24" version="1.1" xmlns="http://www.w3.org/2000/svg" xmlns:xlink="http://www.w3.org/1999/xlink">
    <!-- Generator: Sketch 52.6 (67491) - http://www.bohemiancoding.com/sketch -->
    <title>Group</title>
    <desc>Created with Sketch.</desc>
    <g id="Page-1" stroke="none" stroke-width="1" fill="none" fill-rule="evenodd">
        <g id="Home-page" transform="translate(-1218.000000, -4405.000000)" fill="#FFFFFF">
            <g id="Group-10" transform="translate(70.000000, 4158.000000)">
                <g id="Social-icon" transform="translate(1140.000000, 239.000000)">
                    <g id="Group-13">
                        <g id="Group" transform="translate(8.499025, 8.499025)">
                            <path d="M19.8084211,0.0363352827 L3.11563353,0.0363352827 C1.41512671,0.0363352827 0.0364912281,1.41489279 0.0364912281,3.11547758 L0.0364912281,19.8082651 C0.0364912281,21.5089279 1.41504873,22.8874074 3.11563353,22.8874074 L11.3483041,22.8874074 L11.3625731,14.7219493 L9.24093567,14.7219493 C8.96522417,14.7219493 8.7414425,14.4989474 8.74050682,14.2232359 L8.73013645,11.5909552 C8.72904483,11.3139181 8.95368421,11.088499 9.23072125,11.088499 L11.348616,11.088499 L11.348616,8.54518519 C11.348616,5.59376218 13.1511891,3.98666667 15.7840156,3.98666667 L17.9446394,3.98666667 C18.2208967,3.98666667 18.4452242,4.21076023 18.4452242,4.48725146 L18.4452242,6.70658869 C18.4452242,6.98307992 18.2211306,7.20717349 17.9449513,7.20717349 L16.6189474,7.20795322 C15.1871345,7.20795322 14.9097076,7.88826511 14.9097076,8.88693957 L14.9097076,11.0888109 L18.0559844,11.0888109 C18.3560234,11.0888109 18.588538,11.3506433 18.5530604,11.6481092 L18.2410916,14.2803899 C18.211384,14.5323977 17.9976608,14.7221053 17.7440156,14.7221053 L14.9238986,14.7221053 L14.9096296,22.8878752 L19.8083431,22.8878752 C21.5088499,22.8878752 22.8874854,21.5091618 22.8874854,19.808655 L22.8874854,3.11547758 C22.8875634,1.41497076 21.5089279,0.0363352827 19.8084211,0.0363352827 Z" id="Path"></path>
                            <polygon id="Path" points="11.3602209 22.8873294 11.3785209 14.7218713 11.3337209 14.7218713 11.3337209 22.8873294"></polygon>
                        </g>
                    </g>
                </g>
            </g>
        </g>
    </g>
</svg>