<?xml version="1.0" encoding="UTF-8"?>
<svg width="40px" height="40px" viewBox="0 0 40 40" version="1.1" xmlns="http://www.w3.org/2000/svg" xmlns:xlink="http://www.w3.org/1999/xlink">
    <!-- Generator: Sketch 52.6 (67491) - http://www.bohemiancoding.com/sketch -->
    <title>facebook</title>
    <desc>Created with Sketch.</desc>
    <g id="Page-1" stroke="none" stroke-width="1" fill="none" fill-rule="evenodd">
        <g id="Desktop-HD-Copy-9" transform="translate(-640.000000, -6088.000000)">
            <g id="Group-25" transform="translate(0.000000, 6046.000000)">
                <g id="Group-18" transform="translate(640.000000, 42.000000)">
                    <g id="facebook">
                        <circle id="Oval" fill="#00A9C3" cx="19.9610916" cy="19.9610136" r="19.9610136"></circle>
                        <path d="M39.8905263,18.8460039 L30.4888109,9.44132554 C30.3330214,9.48849903 29.9444055,9.30768031 29.7735673,9.3419883 C25.7410526,10.0141131 21.842963,9.3419883 17.9447953,10.4173099 C16.062924,10.9550097 15.928499,13.240078 15.2564522,14.7186745 C14.3155556,17.4070175 14.4499805,20.3642105 13.2401559,22.9181287 C12.4336842,24.665575 10.5518129,25.7408967 9.87968811,27.757193 C9.65551657,28.5981287 9.66877193,29.6580897 9.41528265,30.4620663 L18.8484211,39.8906823 C19.2168421,39.9109552 19.5876023,39.9221053 19.9610136,39.9221053 C30.9851072,39.9221053 39.9220273,30.9851852 39.9220273,19.9610916 C39.9221053,19.5868226 39.9109552,19.2151267 39.8905263,18.8460039 Z" id="Path" fill="#0099B0"></path>
                        <g id="Group" transform="translate(8.499025, 8.499025)" fill="#FFFFFF">
                            <path d="M19.8084211,0.0363352827 L3.11563353,0.0363352827 C1.41512671,0.0363352827 0.0364912281,1.41489279 0.0364912281,3.11547758 L0.0364912281,19.8082651 C0.0364912281,21.5089279 1.41504873,22.8874074 3.11563353,22.8874074 L11.3483041,22.8874074 L11.3625731,14.7219493 L9.24093567,14.7219493 C8.96522417,14.7219493 8.7414425,14.4989474 8.74050682,14.2232359 L8.73013645,11.5909552 C8.72904483,11.3139181 8.95368421,11.088499 9.23072125,11.088499 L11.348616,11.088499 L11.348616,8.54518519 C11.348616,5.59376218 13.1511891,3.98666667 15.7840156,3.98666667 L17.9446394,3.98666667 C18.2208967,3.98666667 18.4452242,4.21076023 18.4452242,4.48725146 L18.4452242,6.70658869 C18.4452242,6.98307992 18.2211306,7.20717349 17.9449513,7.20717349 L16.6189474,7.20795322 C15.1871345,7.20795322 14.9097076,7.88826511 14.9097076,8.88693957 L14.9097076,11.0888109 L18.0559844,11.0888109 C18.3560234,11.0888109 18.588538,11.3506433 18.5530604,11.6481092 L18.2410916,14.2803899 C18.211384,14.5323977 17.9976608,14.7221053 17.7440156,14.7221053 L14.9238986,14.7221053 L14.9096296,22.8878752 L19.8083431,22.8878752 C21.5088499,22.8878752 22.8874854,21.5091618 22.8874854,19.808655 L22.8874854,3.11547758 C22.8875634,1.41497076 21.5089279,0.0363352827 19.8084211,0.0363352827 Z" id="Path"></path>
                            <polygon id="Path" points="11.3602209 22.8873294 11.3785209 14.7218713 11.3337209 14.7218713 11.3337209 22.8873294"></polygon>
                        </g>
                        <path d="M28.3074464,8.53536062 L19.8266667,8.53536062 L19.8266667,19.5872904 L19.8476413,19.5872904 L19.8476413,17.0440546 C19.8476413,14.0926316 21.6502144,12.4855361 24.2830409,12.4855361 L26.4436647,12.4855361 C26.719922,12.4855361 26.9442495,12.7096296 26.9442495,12.9861209 L26.9442495,15.2054581 C26.9442495,15.4819493 26.7201559,15.7060429 26.4439766,15.7060429 L25.1179727,15.7068226 C23.6861598,15.7068226 23.4087329,16.3871345 23.4087329,17.385809 L23.4087329,19.5876023 L26.5550097,19.5876023 C26.8550487,19.5876023 27.0875634,19.8494347 27.0520858,20.1469006 L26.740117,22.7791813 C26.7104094,23.0311891 26.4966862,23.2208967 26.2430409,23.2208967 L23.422924,23.2208967 L23.408655,31.3866667 L28.3073684,31.3866667 C30.0078752,31.3866667 31.3865107,30.0079532 31.3865107,28.3074464 L31.3865107,11.6145029 C31.3865887,9.9139961 30.0079532,8.53536062 28.3074464,8.53536062 Z" id="Path" fill="#D1D1D1"></path>
                    </g>
                </g>
            </g>
        </g>
    </g>
</svg>