<?xml version="1.0" encoding="UTF-8"?>
<svg width="198px" height="198px" viewBox="0 0 198 198" version="1.1" xmlns="http://www.w3.org/2000/svg" xmlns:xlink="http://www.w3.org/1999/xlink">
    <!-- Generator: Sketch 52.6 (67491) - http://www.bohemiancoding.com/sketch -->
    <title>HAQQIMIZDA</title>
    <desc>Created with Sketch.</desc>
    <g id="Page-1" stroke="none" stroke-width="1" fill="none" fill-rule="evenodd" fill-opacity="0.3">
        <g id="Haqqimizda" transform="translate(-10.000000, -799.000000)" fill="#2DAFAB">
            <path d="M179.016088,827.94916 C140.412014,789.35028 77.5973652,789.35028 38.9932915,827.94916 C25.4487213,841.491672 16.1837168,858.505263 12.1989925,877.151316 C8.31971256,895.30716 9.59041851,914.117734 15.8734281,931.548338 C16.6283295,933.641461 18.9380324,934.726635 21.0308018,933.97252 C23.1249144,933.217733 24.2102531,930.909053 23.4553517,928.81593 C17.6827737,912.800886 16.5154973,895.518016 20.0804588,878.834141 C23.7387756,861.713107 32.2495503,846.086873 44.6919913,833.646322 C80.1542243,798.189477 137.855155,798.189477 173.317388,833.646322 C190.205285,850.532325 199.659015,872.977829 199.936394,896.849637 C200.213773,920.677798 191.332264,943.302597 174.929277,960.555248 C174.735179,960.75939 174.543095,960.964875 174.351012,961.170359 C174.011172,961.533651 173.672003,961.897614 173.317388,962.252176 C137.855155,997.70902 80.1542243,997.70902 44.6919913,962.252176 C44.503266,962.063479 44.319242,961.871425 44.1372328,961.67937 C44.1278301,961.307349 44.1197707,960.9407 44.1197707,960.579423 C44.1197707,959.768229 44.135218,958.960392 44.1647693,958.155242 C44.1748436,957.885963 44.1949922,957.61937 44.2084246,957.350762 C44.2346178,956.815562 44.2594677,956.280362 44.2984217,955.747848 C44.3219284,955.43022 44.3561811,955.115949 44.3843891,954.799664 C44.4267012,954.319528 44.4663268,953.839393 44.5187132,953.361943 C44.5556524,953.024841 44.604009,952.690425 44.6463211,952.354665 C44.7034089,951.90139 44.7578101,951.446772 44.8249722,950.995512 C44.8760153,950.651695 44.9364612,950.311235 44.9928773,949.969432 C45.0647407,949.529587 45.1345892,949.089743 45.2158553,948.652584 C45.2796593,948.306752 45.3528659,947.964278 45.4227144,947.62046 C45.5093535,947.19136 45.5946493,946.761588 45.6900194,946.335174 C45.7672557,945.989342 45.8532231,945.645525 45.9358325,945.301707 C46.0365755,944.882008 46.136647,944.462309 46.2454495,944.045968 C46.3361183,943.700807 46.4341749,943.358333 46.529545,943.015187 C46.6443921,942.604218 46.7585675,942.192577 46.8814741,941.784294 C46.984232,941.441819 47.0943778,941.102031 47.2031803,940.762243 C47.3321314,940.35866 47.4610826,939.954406 47.5974215,939.554181 C47.7129403,939.216407 47.8338319,938.880648 47.9547236,938.544889 C48.0977788,938.14735 48.2415056,937.749811 48.3919486,937.354958 C48.5195565,937.021213 48.6518657,936.690826 48.7848465,936.359768 C48.9413341,935.969615 49.0991649,935.579463 49.2630403,935.192669 C49.4027374,934.863625 49.5464642,934.537267 49.6915342,934.210909 C49.8614542,933.827472 50.033389,933.445378 50.2106968,933.06597 C50.3618114,932.742969 50.5162841,932.421984 50.6727717,932.101669 C50.8567957,931.724947 51.0428346,931.348897 51.2335748,930.976204 C51.3954353,930.660591 51.5599824,930.34632 51.7272159,930.033392 C51.9246723,929.662714 52.1254868,929.293379 52.3303311,928.926059 C52.5029375,928.61716 52.6775588,928.309605 52.8548667,928.004064 C53.0657555,927.640772 53.2800024,927.279495 53.4982791,926.919561 C53.6816315,926.617378 53.8669987,926.316538 54.0550525,926.017041 C54.2793737,925.661136 54.507053,925.307246 54.7380905,924.956042 C54.9315172,924.661245 55.1262871,924.367791 55.3244152,924.076352 C55.5614972,923.727163 55.8039522,923.382002 56.048422,923.037513 C56.251923,922.750775 56.4554241,922.464708 56.6636264,922.181999 C56.9141408,921.840868 57.1700282,921.503094 57.4272589,921.167335 C57.6401626,920.889326 57.8523947,920.611317 58.0699997,920.336666 C58.3339465,920.002922 58.603938,919.673206 58.874601,919.344834 C59.0955642,919.076226 59.3165273,918.807619 59.5421918,918.542369 C59.8202427,918.216011 60.1043381,917.894354 60.3891052,917.573368 C60.6187994,917.314162 60.8471504,917.054284 61.0808743,916.799107 C61.3723576,916.480807 61.6698855,916.168551 61.968085,915.856295 C62.2058386,915.60649 62.442249,915.356014 62.6840324,915.109567 C62.9896197,914.799325 63.3019232,914.495799 63.6135551,914.19093 C63.858025,913.95254 64.10048,913.711465 64.3489796,913.476434 C64.6700142,913.172908 64.9984366,912.876768 65.3255157,912.579957 C65.5753586,912.353655 65.8218433,912.124667 66.0750442,911.901723 C66.4128693,911.60424 66.7594255,911.315488 67.1039668,911.02472 C67.3564961,910.811849 67.6063389,910.59562 67.8622263,910.386106 C68.2188568,910.094667 68.5842183,909.811958 68.9482366,909.527234 C69.2021092,909.329136 69.451952,909.126337 69.708511,908.931597 C70.0920063,908.64083 70.483561,908.360135 70.8744442,908.078097 C71.1209289,907.899473 71.3627122,907.71682 71.6125551,907.541554 C72.0437354,907.238699 72.4849901,906.946589 72.9249015,906.653135 C73.1418349,906.508759 73.354067,906.35901 73.5723436,906.216648 C74.1459075,905.843955 74.7295457,905.48335 75.3172136,905.127445 C75.408554,905.072381 75.4972079,905.013287 75.5892199,904.958223 C76.2688999,904.551282 76.9579825,904.15643 77.6551245,903.772321 C77.8935498,903.641375 78.1386913,903.518487 78.379803,903.390227 C78.8425495,903.143108 79.3039528,902.893975 79.7747588,902.6576 C80.0763164,902.505837 80.3852618,902.363475 80.6895059,902.216413 C81.0736728,902.030402 81.4564965,901.842377 81.8453647,901.663082 C89.1492374,908.638815 98.8924358,912.588015 109.005697,912.588015 C119.118958,912.588015 128.862828,908.638144 136.166701,901.661739 C150.424532,908.259407 162.093938,920.097606 168.429334,934.493618 C169.325276,936.529662 171.70214,937.455686 173.740509,936.559209 C175.777534,935.662732 176.702355,933.284885 175.805742,931.248841 C168.875961,915.501734 156.811643,902.91815 141.541008,895.321933 C145.971688,888.823649 148.368702,881.150208 148.368702,873.231662 C148.368702,851.530201 130.710456,833.874638 109.005697,833.874638 C106.780618,833.874638 104.975974,835.679009 104.975974,837.903749 C104.975974,840.12849 106.780618,841.93286 109.005697,841.93286 C126.267015,841.93286 140.309256,855.973639 140.309256,873.231662 C140.309256,880.948752 137.440765,888.379775 132.23302,894.154162 C132.232348,894.154834 132.231676,894.155505 132.231005,894.156177 C126.284477,900.749145 117.819373,904.530465 109.005025,904.530465 C100.190678,904.530465 91.724902,900.749145 85.7790459,894.156177 C85.7783743,894.154834 85.777031,894.154162 85.7756878,894.153491 C80.5686142,888.377089 77.7007947,880.948081 77.7007947,873.232334 C77.7007947,864.808807 80.9991229,856.906378 86.9886344,850.982242 C88.5709722,849.416933 88.5844046,846.865834 87.0188573,845.284408 C85.4539816,843.701639 82.9024954,843.689552 81.3201575,845.253518 C73.789277,852.700658 69.641349,862.637116 69.641349,873.229648 C69.641349,881.140135 72.0323179,888.808204 76.4556104,895.30313 C76.4159847,895.322604 76.3777024,895.344093 76.3387484,895.364239 C76.02443,895.521374 75.7174994,895.687911 75.4058675,895.848403 C74.9283454,896.095522 74.44948,896.341298 73.978674,896.59849 C73.6455503,896.7798 73.3198143,896.970511 72.9900487,897.156521 C72.5501373,897.405655 72.1095542,897.653445 71.6756874,897.910637 C71.3392055,898.110749 71.0080966,898.317577 70.6749729,898.52239 C70.2585682,898.77891 69.8421635,899.034758 69.4318034,899.298665 C69.0966647,899.514223 68.7675707,899.735824 68.4364618,899.956082 C68.0381909,900.221331 67.6405915,900.487924 67.2483652,900.760561 C66.9185995,900.99022 66.5928636,901.22458 66.2671277,901.45894 C65.884304,901.734934 65.5028236,902.012271 65.1260445,902.29498 C64.802995,902.537399 64.4839753,902.783174 64.1656272,903.030293 C63.7962359,903.317031 63.4295311,903.605784 63.0668561,903.899238 C62.7525377,904.153072 62.4409058,904.410263 62.1306171,904.668798 C61.7739866,904.966952 61.4200426,905.268464 61.0694568,905.573333 C60.7652127,905.83724 60.4629835,906.103161 60.1634407,906.37244 C59.8175562,906.683353 59.476373,906.997624 59.1372046,907.314581 C58.8443781,907.587889 58.5522232,907.861868 58.2634264,908.140548 C57.9282878,908.46422 57.5985221,908.792593 57.2694281,909.122308 C56.9886907,909.403675 56.7079534,909.684369 56.432589,909.969765 C56.106853,910.307538 55.7871617,910.651356 55.4681419,910.995173 C55.2015086,911.282583 54.9328604,911.56865 54.6709284,911.860761 C54.3519087,912.215322 54.04162,912.577271 53.7299881,912.937876 C53.4794737,913.227972 53.2269444,913.515382 52.9811313,913.808836 C52.6647981,914.1869 52.3585391,914.572352 52.0502653,914.956461 C51.8212427,915.242527 51.5875188,915.524565 51.3625259,915.81399 C51.0388049,916.230331 50.7258297,916.654731 50.4115113,917.077787 C50.2140549,917.343709 50.0112255,917.604929 49.8177988,917.873537 C49.4201995,918.424182 49.035361,918.982885 48.6538805,919.544274 C48.5538091,919.692009 48.4476931,919.835713 48.3482932,919.984119 C47.8734575,920.693243 47.4120543,921.410424 46.9627402,922.135664 C46.8075958,922.386141 46.6618542,922.641989 46.510068,922.893808 C46.2192563,923.37663 45.9271014,923.85878 45.6470357,924.348317 C45.4724143,924.653858 45.3071957,924.964771 45.1372757,925.272998 C44.8921342,925.7162 44.6456495,926.15806 44.4105823,926.606634 C44.235961,926.939036 44.0707424,927.275466 43.9008224,927.610554 C43.6818741,928.043012 43.4622542,928.474798 43.252037,928.911957 C43.0848035,929.259803 42.9256295,929.611679 42.7637689,929.96154 C42.5649693,930.393326 42.365498,930.824441 42.1747578,931.260257 C42.0175986,931.619519 41.8671556,931.982139 41.716041,932.344087 C41.5340318,932.77856 41.3533659,933.213032 41.1800878,933.650862 C41.0343462,934.018854 40.8946491,934.388861 40.7549521,934.758868 C40.5897334,935.198041 40.4265297,935.637885 40.2693705,936.080416 C40.1363896,936.455795 40.0074385,936.833188 39.8798306,937.211253 C39.7300592,937.655127 39.5843176,938.100343 39.4432773,938.548246 C39.3230572,938.928997 39.2068669,939.311091 39.0926914,939.693857 C38.9583673,940.145789 38.8287445,940.599064 38.7031515,941.054353 C38.5970355,941.438462 38.4929343,941.823242 38.3928628,942.210036 C38.273986,942.670026 38.1611538,943.132031 38.051008,943.595379 C37.958996,943.982173 37.8676556,944.368297 37.7823598,944.756434 C37.6789303,945.225826 37.5828885,945.697903 37.4888617,946.170652 C37.4116253,946.557447 37.3330457,946.944241 37.2618539,947.33305 C37.1738717,947.815201 37.0946204,948.300037 37.0160409,948.785545 C36.9542518,949.16831 36.8891046,949.550404 36.8333601,949.934513 C36.7601534,950.435466 36.6983644,950.939104 36.635232,951.442743 C36.5888902,951.816107 36.5378471,952.1888 36.4968782,952.563508 C36.4391189,953.091321 36.3947919,953.622492 36.3484501,954.153663 C36.3175556,954.507553 36.2806164,954.860101 36.2550948,955.216005 C36.2121111,955.808956 36.1839031,956.404593 36.1550234,957.000901 C36.1409194,957.297041 36.1187559,957.591166 36.10801,957.887977 C36.0757722,958.78244 36.0576384,959.68026 36.0576384,960.581438 C36.0576384,961.554468 36.0905478,962.474448 36.1301734,963.490456 C36.1395761,963.725487 36.1724855,963.953803 36.219499,964.176747 C36.2235287,964.194207 36.2255435,964.211666 36.2295733,964.229126 C36.2792732,964.448712 36.3491217,964.659569 36.4330743,964.863711 C36.4411337,964.883856 36.4485215,964.904002 36.4572526,964.924147 C36.5438917,965.125603 36.6473212,965.317657 36.7641832,965.50031 C36.7789588,965.523142 36.7930629,965.545973 36.8078385,965.568134 C36.9280586,965.747429 37.061711,965.91598 37.2074527,966.073115 C37.2181986,966.084531 37.2255864,966.098633 37.2363324,966.110049 L37.7682558,966.676139 C38.1698848,967.105911 38.5715139,967.53434 38.9906051,967.952696 C58.2929777,987.252135 83.6473225,996.901855 109.002339,996.901855 C134.357355,996.901855 159.7117,987.252135 179.014073,967.952696 C179.433164,967.53434 179.834793,967.105239 180.236422,966.676139 L180.768345,966.110049 C198.626062,947.327007 208.294711,922.698397 207.993153,896.758982 C207.692939,870.767861 197.401027,846.331305 179.016088,827.94916 Z" id="HAQQIMIZDA"></path>
        </g>
    </g>
</svg>