<?xml version="1.0" encoding="UTF-8"?>
<svg width="40px" height="40px" viewBox="0 0 40 40" version="1.1" xmlns="http://www.w3.org/2000/svg" xmlns:xlink="http://www.w3.org/1999/xlink">
    <!-- Generator: Sketch 52.6 (67491) - http://www.bohemiancoding.com/sketch -->
    <title>Group 11</title>
    <desc>Created with Sketch.</desc>
    <g id="Page-1" stroke="none" stroke-width="1" fill="none" fill-rule="evenodd">
        <g id="Home-page" transform="translate(-1330.000000, -4397.000000)">
            <g id="Group-10" transform="translate(70.000000, 4158.000000)">
                <g id="Social-icon" transform="translate(1140.000000, 239.000000)">
                    <g id="Group-11" transform="translate(120.000000, 0.000000)">
                        <circle id="Oval" fill="#009E9A" cx="20" cy="20" r="20"></circle>
                        <g id="Group-9" transform="translate(8.000000, 8.000000)" fill="#FFFFFF">
                            <g id="Group" transform="translate(0.515625, 0.515625)" fill-rule="nonzero">
                                <path d="M16.1114844,0.0365625 L6.8571875,0.0365625 C3.09625,0.0365625 0.0365625,3.09625 0.0365625,6.8571875 L0.0365625,16.1114844 C0.0365625,19.8722656 3.09625,22.9321875 6.85726563,22.9321875 L16.1115625,22.9321875 C19.8723438,22.9321875 22.9322656,19.8724219 22.9322656,16.1114844 L22.9322656,6.8571875 C22.9321875,3.09625 19.8724219,0.0365625 16.1114844,0.0365625 Z M20.6289062,16.1115625 C20.6289062,18.6064063 18.6064063,20.6289062 16.1115625,20.6289062 L6.85726562,20.6289062 C4.36242187,20.6289062 2.33992187,18.6064063 2.33992187,16.1115625 L2.33992187,6.85726563 C2.33992187,4.36242188 4.36242187,2.33984375 6.85726562,2.33984375 L16.1115625,2.33984375 C18.6064063,2.33984375 20.6289062,4.3625 20.6289062,6.85726563 L20.6289062,16.1115625 Z" id="Shape"></path>
                                <path d="M11.484375,5.56265625 C8.21921875,5.56265625 5.56265625,8.21921875 5.56265625,11.484375 C5.56265625,14.7492969 8.21921875,17.4058594 11.484375,17.4058594 C14.7495312,17.4058594 17.4058594,14.7495313 17.4058594,11.484375 C17.4058594,8.21921875 14.7495312,5.56265625 11.484375,5.56265625 Z M11.484375,15.1025781 C9.48601562,15.1025781 7.8659375,13.4828125 7.8659375,11.484375 C7.8659375,9.4859375 9.48601562,7.8659375 11.484375,7.8659375 C13.4827344,7.8659375 15.1025781,9.48585937 15.1025781,11.484375 C15.1025781,13.4827344 13.4827344,15.1025781 11.484375,15.1025781 Z" id="Shape"></path>
                            </g>
                            <g id="Group-8" transform="translate(11.000000, 0.000000)">
                                <path d="M8.35179687,6.12296875 C8.35179687,6.9065625 7.71648437,7.54195312 6.9328125,7.54195312 C6.14921875,7.54195312 5.51382812,6.9065625 5.51382812,6.12296875 C5.51382812,5.33929687 6.14921875,4.70398437 6.9328125,4.70398437 C7.71664062,4.70398437 8.35179687,5.33914062 8.35179687,6.12296875 Z" id="Path"></path>
                                <path d="M5.6271875,0.5521875 L0.95515625,0.5521875 L0.95515625,2.85546875 L5.6271875,2.85546875 C8.12203125,2.85546875 10.1445313,4.878125 10.1445313,7.37289062 L10.1445313,16.6271875 C10.1445313,19.1220313 8.12203125,21.1445313 5.6271875,21.1445313 L0.95515625,21.1445313 L0.95515625,23.4478125 L5.6271875,23.4478125 C9.38796875,23.4478125 12.4478125,20.3880469 12.4478125,16.6271094 L12.4478125,7.3728125 C12.4478125,3.611875 9.38804688,0.5521875 5.6271875,0.5521875 Z" id="Path"></path>
                                <path d="M1,6.07828125 C0.984921875,6.07828125 0.970234375,6.079375 0.95515625,6.079375 L0.95515625,8.38265625 C0.970078125,8.3825 0.984921875,8.3815625 1,8.3815625 C2.99835937,8.3815625 4.61820312,10.0014844 4.61820312,12 C4.61820312,13.9983594 2.9984375,15.6182031 1,15.6182031 C0.984921875,15.6182031 0.970078125,15.6172656 0.95515625,15.6171094 L0.95515625,17.9203906 C0.970234375,17.9205469 0.984921875,17.9214844 1,17.9214844 C4.26515625,17.9214844 6.92148437,15.2650781 6.92148437,12 C6.92148437,8.73484375 4.26515625,6.07828125 1,6.07828125 Z" id="Path"></path>
                            </g>
                        </g>
                    </g>
                </g>
            </g>
        </g>
    </g>
</svg>