<?xml version="1.0" encoding="UTF-8"?>
<svg width="40px" height="40px" viewBox="0 0 40 40" version="1.1" xmlns="http://www.w3.org/2000/svg" xmlns:xlink="http://www.w3.org/1999/xlink">
    <!-- Generator: Sketch 52.6 (67491) - http://www.bohemiancoding.com/sketch -->
    <title>instagram</title>
    <desc>Created with Sketch.</desc>
    <g id="Page-1" stroke="none" stroke-width="1" fill="none" fill-rule="evenodd">
        <g id="Desktop-HD-Copy-9" transform="translate(-760.000000, -6088.000000)">
            <g id="Group-25" transform="translate(0.000000, 6046.000000)">
                <g id="Group-18" transform="translate(640.000000, 42.000000)">
                    <g id="instagram" transform="translate(120.000000, 0.000000)">
                        <circle id="Oval" fill="#00A9C3" cx="20" cy="20" r="20"></circle>
                        <path d="M29.2742187,10.3845313 C26.8846094,10.6870313 24.3930469,10.6764844 21.8855469,10.4377344 C18.3838281,10.1683594 13.2660156,8.5521875 11.3804687,11.7845313 C8.35140625,16.9592188 9.84539062,23.5841406 10.55125,29.446875 L21.0775781,39.9709375 C31.2641406,39.4300781 39.4280469,31.2672656 39.970625,21.0810938 L29.2742187,10.3845313 Z" id="Path" fill="#0099B0"></path>
                        <g id="Group" transform="translate(8.515625, 8.515625)" fill="#FFFFFF" fill-rule="nonzero">
                            <path d="M16.1114844,0.0365625 L6.8571875,0.0365625 C3.09625,0.0365625 0.0365625,3.09625 0.0365625,6.8571875 L0.0365625,16.1114844 C0.0365625,19.8722656 3.09625,22.9321875 6.85726563,22.9321875 L16.1115625,22.9321875 C19.8723438,22.9321875 22.9322656,19.8724219 22.9322656,16.1114844 L22.9322656,6.8571875 C22.9321875,3.09625 19.8724219,0.0365625 16.1114844,0.0365625 Z M20.6289062,16.1115625 C20.6289062,18.6064063 18.6064063,20.6289062 16.1115625,20.6289062 L6.85726562,20.6289062 C4.36242187,20.6289062 2.33992187,18.6064063 2.33992187,16.1115625 L2.33992187,6.85726563 C2.33992187,4.36242188 4.36242187,2.33984375 6.85726562,2.33984375 L16.1115625,2.33984375 C18.6064063,2.33984375 20.6289062,4.3625 20.6289062,6.85726563 L20.6289062,16.1115625 Z" id="Shape"></path>
                            <path d="M11.484375,5.56265625 C8.21921875,5.56265625 5.56265625,8.21921875 5.56265625,11.484375 C5.56265625,14.7492969 8.21921875,17.4058594 11.484375,17.4058594 C14.7495312,17.4058594 17.4058594,14.7495313 17.4058594,11.484375 C17.4058594,8.21921875 14.7495312,5.56265625 11.484375,5.56265625 Z M11.484375,15.1025781 C9.48601562,15.1025781 7.8659375,13.4828125 7.8659375,11.484375 C7.8659375,9.4859375 9.48601562,7.8659375 11.484375,7.8659375 C13.4827344,7.8659375 15.1025781,9.48585937 15.1025781,11.484375 C15.1025781,13.4827344 13.4827344,15.1025781 11.484375,15.1025781 Z" id="Shape"></path>
                        </g>
                        <g id="Group" transform="translate(19.921875, 8.515625)" fill="#D1D1D1">
                            <path d="M7.42992188,5.60734375 C7.42992188,6.3909375 6.79460938,7.02632813 6.0109375,7.02632813 C5.22734375,7.02632813 4.59195312,6.3909375 4.59195312,5.60734375 C4.59195312,4.82367187 5.22734375,4.18835937 6.0109375,4.18835937 C6.79476563,4.18835937 7.42992188,4.82351563 7.42992188,5.60734375 Z" id="Path"></path>
                            <path d="M4.7053125,0.0365625 L0.03328125,0.0365625 L0.03328125,2.33984375 L4.7053125,2.33984375 C7.20015625,2.33984375 9.22265625,4.3625 9.22265625,6.85726563 L9.22265625,16.1115625 C9.22265625,18.6064063 7.20015625,20.6289063 4.7053125,20.6289063 L0.03328125,20.6289063 L0.03328125,22.9321875 L4.7053125,22.9321875 C8.46609375,22.9321875 11.5259375,19.8724219 11.5259375,16.1114844 L11.5259375,6.8571875 C11.5259375,3.09625 8.46617188,0.0365625 4.7053125,0.0365625 Z" id="Path"></path>
                            <path d="M0.078125,5.56265625 C0.063046875,5.56265625 0.048359375,5.56375 0.03328125,5.56375 L0.03328125,7.86703125 C0.048203125,7.866875 0.063046875,7.8659375 0.078125,7.8659375 C2.07648438,7.8659375 3.69632812,9.48585938 3.69632812,11.484375 C3.69632812,13.4827344 2.0765625,15.1025781 0.078125,15.1025781 C0.063046875,15.1025781 0.048203125,15.1016406 0.03328125,15.1014844 L0.03328125,17.4047656 C0.048359375,17.4049219 0.063046875,17.4058594 0.078125,17.4058594 C3.34328125,17.4058594 5.99960938,14.7494531 5.99960938,11.484375 C5.99960938,8.21921875 3.34328125,5.56265625 0.078125,5.56265625 Z" id="Path"></path>
                        </g>
                    </g>
                </g>
            </g>
        </g>
    </g>
</svg>