<?xml version="1.0" encoding="UTF-8"?>
<svg width="188px" height="141px" viewBox="0 0 188 141" version="1.1" xmlns="http://www.w3.org/2000/svg" xmlns:xlink="http://www.w3.org/1999/xlink">
    <!-- Generator: Sketch 52.6 (67491) - http://www.bohemiancoding.com/sketch -->
    <title>Karyera</title>
    <desc>Created with Sketch.</desc>
    <defs>
        <rect id="path-1" x="0" y="0" width="310" height="200" rx="10"></rect>
    </defs>
    <g id="Page-1" stroke="none" stroke-width="1" fill="none" fill-rule="evenodd">
        <g id="Haqqimizda" transform="translate(-730.000000, -796.000000)">
            <g id="Karyera" transform="translate(730.000000, 737.000000)">
                <mask id="mask-2" fill="white">
                    <use xlink:href="#path-1"></use>
                </mask>
                <g id="Mask"></g>
                <g id="Group-10" opacity="0.3" mask="url(#mask-2)" fill="#2DAFAB">
                    <g transform="translate(55.000000, 163.000000) rotate(-30.000000) translate(-55.000000, -163.000000) translate(-45.000000, 63.000000)">
                        <path d="M196.922807,183.948538 L167.279532,154.305263 C165.546589,152.57232 163.242885,151.617934 160.792203,151.617934 C159.351267,151.617934 157.962183,151.950097 156.709162,152.574269 L149.121637,144.986745 C155.262768,137.894737 158.982456,128.651852 158.982456,118.556335 C158.982456,96.2651072 140.847173,78.1302144 118.555945,78.1302144 C96.2647173,78.1302144 78.1298246,96.2651072 78.1298246,118.556335 C78.1298246,140.847563 96.2651072,158.982846 118.555945,158.982846 C128.651462,158.982846 137.894347,155.262768 144.986355,149.122027 L152.573879,156.709552 C151.949708,157.962573 151.617544,159.351657 151.617544,160.792593 C151.617544,163.243275 152.57193,165.546979 154.304873,167.279922 L183.948148,196.923197 C185.681092,198.65614 187.984795,199.610526 190.435478,199.610526 C192.88616,199.610526 195.189864,198.65614 196.922807,196.923587 C198.65575,195.190643 199.610136,192.88694 199.610136,190.436257 C199.610136,187.985575 198.65575,185.681092 196.922807,183.948538 Z M83.9777778,118.556335 C83.9777778,99.4896686 99.4896686,83.9781676 118.555945,83.9781676 C137.622222,83.9781676 153.134503,99.4900585 153.134503,118.556335 C153.134503,137.622612 137.622612,153.134893 118.555945,153.134893 C99.4892788,153.134893 83.9777778,137.622612 83.9777778,118.556335 Z M157.465887,160.792593 C157.465887,159.904094 157.811696,159.069006 158.440546,158.440546 C159.068616,157.812086 159.903704,157.466277 160.792593,157.466277 C161.681092,157.466277 162.516179,157.812086 163.144639,158.440546 L165.718908,161.014815 L161.014815,165.718908 L158.440546,163.144639 C157.812086,162.516179 157.465887,161.680702 157.465887,160.792593 Z M192.787914,192.787524 C192.787914,192.787914 192.787914,192.787914 192.787914,192.787524 C192.159454,193.415984 191.324366,193.762183 190.435867,193.762183 C189.547368,193.762183 188.712281,193.416374 188.083821,192.787914 L165.149708,169.853801 L169.853801,165.149708 L192.787914,188.083821 C193.416374,188.711891 193.762183,189.547368 193.762183,190.435867 C193.762183,191.324366 193.416374,192.159454 192.787914,192.787524 Z" id="Shape" fill-rule="nonzero"></path>
                        <path d="M118.556335,90.6307992 C113.594152,90.6307992 108.695127,91.9750487 104.388694,94.5185185 C102.998441,95.3395712 102.536842,97.1329435 103.357895,98.5231969 C104.179337,99.9138402 105.97232,100.375439 107.362573,99.5539961 C110.768811,97.5423002 114.639766,96.4787524 118.556335,96.4787524 C130.729825,96.4787524 140.633918,106.382846 140.633918,118.556335 C140.633918,122.473294 139.57076,126.34425 137.559064,129.750097 C136.738012,131.140351 137.19961,132.933723 138.589864,133.754776 C139.05653,134.030409 139.568421,134.161404 140.074074,134.161404 C141.074074,134.161404 142.048733,133.647563 142.594542,132.723977 C145.137622,128.417934 146.481871,123.518908 146.481871,118.556335 C146.481871,103.158285 133.954386,90.6307992 118.556335,90.6307992 Z" id="Path" fill-rule="evenodd"></path>
                        <path d="M129.750097,137.558674 C126.34425,139.57037 122.473294,140.633528 118.556335,140.633528 C106.382846,140.633528 96.4787524,130.729435 96.4787524,118.555945 C96.4787524,114.638986 97.5423002,110.768031 99.5539961,107.362183 C100.375049,105.97193 99.9134503,104.178558 98.5231969,103.357505 C97.1329435,102.536842 95.3395712,102.998051 94.5185185,104.388304 C91.9754386,108.694737 90.6307992,113.593762 90.6307992,118.555945 C90.6307992,133.953996 103.158285,146.481481 118.556335,146.481481 C123.518908,146.481481 128.417934,145.137232 132.723977,142.594152 C134.11423,141.773099 134.575828,139.979727 133.754776,138.589474 C132.933723,137.19961 131.14152,136.737232 129.750097,137.558674 Z" id="Path" fill-rule="evenodd"></path>
                        <path d="M43.5512671,93.3536062 L76.1703704,93.3536062 C77.7851852,93.3536062 79.094347,92.0444444 79.094347,90.4296296 C79.094347,88.8148148 77.7851852,87.505653 76.1703704,87.505653 L43.5512671,87.505653 C29.654191,87.505653 18.348538,76.1996101 18.348538,62.302924 L18.348538,24.5992203 L156.259649,24.5992203 L156.259649,62.302924 C156.259649,68.1384016 154.323977,73.6159844 150.661209,78.1423002 C149.645614,79.3976608 149.839766,81.2385965 151.095127,82.2545809 C151.636257,82.6927875 152.28655,82.905653 152.932554,82.905653 C153.784795,82.905653 154.62963,82.5348928 155.207407,81.8206628 C159.65692,76.3212476 162.107602,69.3898635 162.107602,62.302924 L162.107602,24.5992203 L162.308772,24.5992203 C165.866277,24.5992203 168.760234,27.4931774 168.760234,31.0506823 L168.760234,131.05692 C168.760234,133.787135 167.031969,136.232749 164.459649,137.14191 C162.937232,137.680312 162.139181,139.350877 162.677583,140.873294 C163.215984,142.395712 164.88694,143.193762 166.408967,142.655361 C171.31306,140.921637 174.608187,136.260429 174.608187,131.05653 L174.608187,31.0506823 C174.608187,24.268616 169.090838,18.7512671 162.308772,18.7512671 L117.538402,18.7512671 L113.379337,6.27329435 C112.128655,2.5208577 108.630799,-1.30029321e-12 104.675634,-1.30029321e-12 L69.9329435,-1.30029321e-12 C65.9777778,-1.30029321e-12 62.479922,2.5208577 61.2292398,6.27329435 L57.0701754,18.7512671 L12.2994152,18.7512671 C5.51734893,18.7512671 -3.90798505e-13,24.268616 -3.90798505e-13,31.0506823 L-3.90798505e-13,131.05692 C-3.90798505e-13,137.838986 5.51734893,143.356335 12.2994152,143.356335 L71.6779727,143.356335 C73.2927875,143.356335 74.6019493,142.047173 74.6019493,140.432359 C74.6019493,138.817544 73.2927875,137.508382 71.6779727,137.508382 L12.2994152,137.508382 C8.74191033,137.508382 5.84795322,134.614425 5.84795322,131.05692 L5.84795322,31.0506823 C5.84795322,27.4931774 8.74191033,24.5992203 12.2994152,24.5992203 L12.5005848,24.5992203 L12.5005848,62.302924 C12.5005848,79.4241715 26.4300195,93.3536062 43.5512671,93.3536062 Z M66.7773879,8.12241715 C67.2307992,6.76218324 68.4990253,5.84795322 69.9329435,5.84795322 L104.675634,5.84795322 C106.109552,5.84795322 107.377778,6.76218324 107.831189,8.12241715 L111.373879,18.7512671 L63.234308,18.7512671 L66.7773879,8.12241715 Z" id="Shape" fill-rule="nonzero"></path>
                        <path d="M74.8035088,56.2538012 C71.4678363,56.2538012 68.754386,58.9672515 68.754386,62.302924 L68.754386,68.5532164 C68.754386,71.8888889 71.4678363,74.6023392 74.8035088,74.6023392 L99.8050682,74.6023392 C103.140741,74.6023392 105.854191,71.8888889 105.854191,68.5532164 L105.854191,62.302924 C105.854191,58.9672515 103.140741,56.2538012 99.8050682,56.2538012 L74.8035088,56.2538012 Z M100.006238,62.302924 L100.006238,68.5532164 C100.006238,68.6643275 99.9161793,68.754386 99.8050682,68.754386 L74.8035088,68.754386 C74.6923977,68.754386 74.6023392,68.6643275 74.6023392,68.5532164 L74.6023392,62.302924 C74.6023392,62.1918129 74.6923977,62.1017544 74.8035088,62.1017544 L99.8050682,62.1017544 C99.9161793,62.1017544 100.006238,62.1918129 100.006238,62.302924 Z" id="Shape" fill-rule="nonzero"></path>
                    </g>
                </g>
            </g>
        </g>
    </g>
</svg>