<?xml version="1.0" encoding="UTF-8"?>
<svg width="30px" height="30px" viewBox="0 0 30 30" version="1.1" xmlns="http://www.w3.org/2000/svg" xmlns:xlink="http://www.w3.org/1999/xlink">
    <!-- Generator: Sketch 52.6 (67491) - http://www.bohemiancoding.com/sketch -->
    <title>plus (5)</title>
    <desc>Created with Sketch.</desc>
    <g id="Page-1" stroke="none" stroke-width="1" fill="none" fill-rule="evenodd">
        <g id="Haqqimizda" transform="translate(-1340.000000, -5568.000000)" fill="#4F5051">
            <g id="Group-15" transform="translate(70.000000, 5303.000000)">
                <g id="plus-(5)" transform="translate(1270.000000, 265.000000)">
                    <path d="M28.2984848,13.4045885 L16.3834768,13.4045885 L16.3834768,1.4893078 C16.3834768,0.667338641 15.7161382,0 14.8938963,0 C14.0719271,0 13.4045885,0.667338641 13.4045885,1.4893078 L13.4045885,13.4045885 L1.4893078,13.4045885 C0.667338641,13.4045885 0,14.0719271 0,14.8938963 C0,15.7161382 0.667338641,16.3834768 1.4893078,16.3834768 L13.4045885,16.3834768 L13.4045885,28.2984848 C13.4045885,29.1207267 14.0719271,29.7880653 14.8938963,29.7880653 C15.7161382,29.7880653 16.3834768,29.1207267 16.3834768,28.2984848 L16.3834768,16.3834768 L28.2984848,16.3834768 C29.1207267,16.3834768 29.7880653,15.7161382 29.7880653,14.8938963 C29.7880653,14.0719271 29.1207267,13.4045885 28.2984848,13.4045885 Z" id="Path"></path>
                </g>
            </g>
        </g>
    </g>
</svg>