<?xml version="1.0" encoding="UTF-8"?>
<svg width="116px" height="131px" viewBox="0 0 116 131" version="1.1" xmlns="http://www.w3.org/2000/svg" xmlns:xlink="http://www.w3.org/1999/xlink">
    <!-- Generator: Sketch 52.6 (67491) - http://www.bohemiancoding.com/sketch -->
    <title>Rectangle</title>
    <desc>Created with Sketch.</desc>
    <g id="Page-1" stroke="none" stroke-width="1" fill="none" fill-rule="evenodd">
        <g id="Haqqimizda-sertifikatlar" transform="translate(-872.000000, -1770.000000)">
            <g id="Rectangle" transform="translate(872.000000, 1770.000000)">
                <g id="Mask" fill="#00ACAA" fill-rule="nonzero">
                    <path d="M115.881974,22.7365292 C115.588681,19.4201575 112.877371,16.9192159 109.57517,16.9192159 L93.1933362,16.9192159 L93.1933362,14.4849286 L93.5122096,14.4849286 C95.8514585,14.4849286 97.7545677,12.5659993 97.7545677,10.20756 L97.7545677,4.27736861 C97.7545677,1.91892935 95.8514585,1.89760275e-12 93.5122096,1.89760275e-12 L45.2962271,1.89760275e-12 C44.2471616,1.89760275e-12 43.3966638,0.857312461 43.3966638,1.91535402 C43.3966638,2.97339559 44.2471616,3.83070805 45.2962271,3.83070805 L93.5122096,3.83070805 C93.7566201,3.83070805 93.955441,4.03092639 93.955441,4.27736861 L93.955441,10.20756 C93.955441,10.4540023 93.7566201,10.6542206 93.5122096,10.6542206 L22.4923493,10.6542206 C22.2479389,10.6542206 22.0491179,10.4540023 22.0491179,10.20756 L22.0491179,4.27736861 C22.0491179,4.03092639 22.2479389,3.83070805 22.4923493,3.83070805 L36.3898079,3.83070805 C37.4388734,3.83070805 38.2893712,2.97339559 38.2893712,1.91535402 C38.2893712,0.857312461 37.4388734,1.8971491e-12 36.3898079,1.8971491e-12 L22.4923493,1.8971491e-12 C20.1531004,1.8971491e-12 18.2499913,1.91892935 18.2499913,4.27736861 L18.2499913,10.20756 C18.2499913,12.5659993 20.1531004,14.4849286 22.4923493,14.4849286 L22.8112227,14.4849286 L22.8112227,16.9192159 L6.42938865,16.9192159 C3.12718777,16.9192159 0.415877729,19.4201575 0.122585153,22.7365292 C0.0840873362,23.1701653 -0.769449782,33.4934127 3.4230131,44.9267994 C7.25886463,55.3876969 16.0591616,68.7446097 36.222393,73.9865506 C39.4683668,76.5725339 43.1747948,78.5961693 47.1960437,79.9075483 L48.1521572,81.4988245 C49.9592751,84.5069518 50.9143755,88.0631258 50.9143755,91.7827433 C50.9143755,94.0548639 50.5552314,96.2746316 49.8470742,98.3797333 L48.5194061,102.324852 L44.1020349,102.324852 C39.568917,102.324852 35.8807249,106.043703 35.8807249,110.614759 L35.8807249,114.627043 L28.9673275,114.627043 C27.0163493,114.627043 25.4290742,116.227768 25.4290742,118.194965 L25.4290742,127.192021 C25.4290742,129.159217 27.0163493,130.759687 28.9673275,130.759687 L87.0374847,130.759687 C88.9884629,130.759687 90.575738,129.159217 90.575738,127.192021 L90.575738,118.194965 C90.575738,116.227768 88.9884629,114.627043 87.0374847,114.627043 L80.1240873,114.627043 L80.1240873,110.614759 C80.1240873,106.043703 76.4358952,102.324852 71.9027773,102.324852 L67.4854061,102.324852 L66.157738,98.3797333 C65.4493275,96.2748869 65.0901834,94.0551193 65.0901834,91.7827433 C65.0901834,88.0633812 66.0452838,84.5072072 67.8524017,81.4988245 L68.8085153,79.9075483 C72.8297642,78.5961693 76.5359389,76.5727893 79.7821659,73.9865506 C99.9453974,68.7446097 108.745694,55.3876969 112.581546,44.9267994 C116.774009,33.4934127 115.920472,23.1704207 115.881974,22.7365292 Z M23.5145677,53.2095563 C19.9727686,49.8661143 17.2594323,45.718479 15.4036856,40.775078 C14.114262,37.3402098 13.2703493,33.6108878 12.8947424,29.6882427 L22.8112227,29.6882427 L22.8112227,46.1378139 C22.8112227,48.5588214 23.0541135,50.9236451 23.5145677,53.2095563 Z M6.98659389,43.5985652 C3.08742358,32.9650304 3.87156332,23.4756004 3.90676856,23.0769514 C4.02403493,21.7505049 5.10855895,20.7501794 6.42938865,20.7501794 L22.8112227,20.7501794 L22.8112227,25.8577901 L12.7374585,25.8577901 C11.7111878,25.8577901 10.7264541,26.2962785 10.0355197,27.0608878 C9.34382533,27.8265186 9.00190393,28.8572345 9.09738865,29.8889718 C9.49731004,34.2107767 10.4235371,38.3298093 11.8504891,42.131404 C14.6686812,49.639081 19.2304192,55.5013412 25.4746638,59.67477 C26.7033013,62.6647653 28.3260349,65.4499454 30.2777729,67.9641668 C16.51531,62.212231 10.0337467,51.9081371 6.98659389,43.5985652 Z M86.7766114,118.457751 L86.7766114,126.928979 L29.2279476,126.928979 L29.2279476,118.457751 L86.7766114,118.457751 Z M71.9027773,106.15556 C74.3410568,106.15556 76.3249607,108.155956 76.3249607,110.614759 L76.3249607,114.627043 L39.6798515,114.627043 L39.6798515,110.614759 C39.6798515,108.155956 41.6637555,106.15556 44.1020349,106.15556 L71.9027773,106.15556 Z M62.5602183,99.6106675 L63.4735284,102.324852 L52.5307773,102.324852 L53.4443406,99.6104121 C54.2862271,97.1079382 54.7132489,94.4744541 54.7132489,91.7827433 C54.7132489,88.0151142 53.8782009,84.3777293 52.2901659,81.1515069 C54.1499651,81.4589851 56.0573799,81.6214071 58.0022795,81.6214071 C59.9469258,81.6214071 61.8545939,81.4589851 63.7141397,81.1515069 C62.1261048,84.3777293 61.2910568,88.0151142 61.2910568,91.7827433 C61.29131,94.4747095 61.7180786,97.1081936 62.5602183,99.6106675 Z M58.0022795,77.7904437 C40.6926987,77.7904437 26.6103493,63.5910305 26.6103493,46.1378139 L26.6103493,14.4849286 L89.3942096,14.4849286 L89.3942096,46.1378139 C89.3942096,63.5912859 75.3118603,77.7904437 58.0022795,77.7904437 Z M109.018218,43.5985652 C105.971066,51.9083925 99.4892489,62.2135079 85.7260262,67.9654437 C87.68131,65.4466255 89.3065764,62.6560823 90.5362271,59.6599579 C95.8978079,56.0700737 100.026952,51.2352094 102.870218,45.1811584 C103.319275,44.225269 102.914541,43.0829519 101.966533,42.6304176 C101.018777,42.1778833 99.886131,42.5854706 99.436821,43.5416153 C97.676559,47.2898355 95.3550393,50.5191223 92.4884716,53.2213038 C92.9504454,50.9318173 93.1938428,48.5631628 93.1938428,46.1380692 L93.1938428,29.6884981 L103.110323,29.6884981 C102.92138,31.6592697 102.607319,33.613697 102.176498,35.5004484 C101.941205,36.5314196 102.579205,37.5595816 103.601677,37.7965748 C104.623135,38.0351002 105.643581,37.3907751 105.878873,36.3598039 C106.358576,34.2582774 106.70455,32.0811584 106.907677,29.8889718 C107.003162,28.8572345 106.66124,27.8265186 105.969546,27.0608878 C105.278611,26.2962785 104.293878,25.8577901 103.267607,25.8577901 L93.1938428,25.8577901 L93.1938428,20.7501794 L109.575677,20.7501794 C110.896507,20.7501794 111.981031,21.7505049 112.098297,23.0772068 C112.132996,23.4756004 112.917135,32.9650304 109.018218,43.5985652 Z" id="Shape"></path>
                    <path d="M70.4935546,37.1994951 L65.0466201,36.4014309 C64.8093013,36.3664438 64.6044017,36.21628 64.4982795,35.9997173 L62.0622795,31.0228614 C61.2940961,29.4532927 59.7384803,28.4782498 58.0025328,28.4782498 C56.2665852,28.4782498 54.7109694,29.4532927 53.942786,31.0228614 L51.506786,35.9997173 C51.4006638,36.2165354 51.1957642,36.3666992 50.9584454,36.4014309 L45.5115109,37.1994951 C43.7935459,37.4510449 42.3931878,38.6413736 41.8567511,40.3061993 C41.3203144,41.971025 41.7592402,43.7640518 43.0023144,44.9860476 L46.9437817,48.8596596 C47.1155022,49.0284662 47.1937642,49.271333 47.1532402,49.5098585 L46.2227074,54.9801096 C45.9291616,56.7052051 46.6193362,58.4157439 48.0237467,59.4446721 C49.4279039,60.4730895 51.2550306,60.6066535 52.7919039,59.792245 L57.6636507,57.2095816 C57.8758952,57.0969588 58.1291703,57.0969588 58.3414148,57.2095816 L63.2134148,59.792245 C63.8818079,60.1464578 64.6049083,60.3213935 65.3242096,60.3213935 C66.259048,60.3213935 67.1878079,60.0259182 67.9813188,59.4444167 C69.3857293,58.4154885 70.0759039,56.7046943 69.7823581,54.9798542 L68.8518253,49.5096031 C68.8113013,49.2710777 68.8895633,49.0282108 69.0612838,48.8596596 L73.0030044,44.9855369 C74.2460786,43.7637964 74.6850044,41.9705143 74.1485677,40.3059439 C73.612131,38.6413736 72.2112664,37.4510449 70.4935546,37.1994951 Z M70.3509607,42.2427499 L66.4092402,46.1168727 C65.3421921,47.1657205 64.8553974,48.676041 65.1071528,50.1572481 L66.0376856,55.6274992 C66.1042969,56.0189976 65.8847074,56.2455201 65.7479389,56.3458847 C65.6114236,56.4462492 65.3297817,56.5872193 64.9810218,56.401813 L60.1090218,53.8191496 C59.4494934,53.4695337 58.7258865,53.294598 58.0022795,53.294598 C57.2786725,53.294598 56.5550655,53.4695337 55.8955371,53.8191496 L51.0237904,56.401813 C50.6752838,56.5869639 50.3936419,56.4459938 50.2566201,56.3458847 C50.1198515,56.2455201 49.9005153,56.019253 49.9668734,55.6274992 L50.8974061,50.1572481 C51.1494148,48.676041 50.6626201,47.1657205 49.5953188,46.1166173 L45.6538515,42.2430053 C45.3717031,41.965662 45.4170393,41.6523101 45.4694672,41.4901435 C45.5216419,41.3279768 45.6675284,41.047569 46.0573188,40.9903638 L51.5042533,40.1922996 C52.9793275,39.9759923 54.2535546,39.0425764 54.913083,37.6951887 L57.349083,32.7183328 C57.5233362,32.362077 57.8330917,32.3089578 58.0020262,32.3089578 C58.1709607,32.3089578 58.4807162,32.362077 58.6549694,32.7183328 L61.0909694,37.6951887 C61.7504978,39.0425764 63.0247249,39.9762477 64.4997991,40.1922996 L69.9469869,40.9903638 C70.3367773,41.047569 70.4826638,41.3279768 70.5348384,41.4901435 C70.5875197,41.6523101 70.6328559,41.965662 70.3509607,42.2427499 Z" id="Shape"></path>
                </g>
                <rect fill="#FFFFFF" x="58" y="-10" width="60" height="156"></rect>
            </g>
        </g>
    </g>
</svg>