<?xml version="1.0" encoding="UTF-8"?>
<svg width="200px" height="237px" viewBox="0 0 200 237" version="1.1" xmlns="http://www.w3.org/2000/svg" xmlns:xlink="http://www.w3.org/1999/xlink">
    <!-- Generator: Sketch 52.6 (67491) - http://www.bohemiancoding.com/sketch -->
    <title>Sertİfİkat</title>
    <desc>Created with Sketch.</desc>
    <g id="Page-1" stroke="none" stroke-width="1" fill="none" fill-rule="evenodd" opacity="0.304199219">
        <g id="Haqqimizda" transform="translate(-340.000000, -803.000000)" fill="#2DAFAB">
            <g id="Sertİfİkat" transform="translate(340.000000, 803.000000)">
                <path d="M76.8553278,186.175199 C75.6665332,186.177653 74.4824249,186.036462 73.3326796,185.755167 C67.5901807,184.3257 63.8055173,179.515648 60.4684632,175.271284 C58.6273282,172.512153 56.246159,170.099222 53.4486404,168.157826 C50.1887085,166.834853 46.6896217,166.097021 43.1354327,165.98314 C37.3128737,165.376802 31.2683295,164.753528 27.1452299,160.902098 C23.0221303,157.050669 22.3488969,151.447974 21.6865808,146.018034 C21.5645432,142.710387 20.7744347,139.453714 19.3575572,136.418253 C17.2694516,133.816298 14.6776487,131.600233 11.7154484,129.884033 C7.15201779,126.777823 1.98449663,123.25158 0.452435785,117.909712 C-1.02139947,112.77786 1.38040613,107.662944 3.70942975,102.717397 C5.4094131,99.719301 6.49302603,96.4520927 6.90455903,93.0837422 C6.49302603,89.7153918 5.4094131,86.4481834 3.70942975,83.4500873 C1.38040613,78.5045401 -1.02139947,73.3930123 0.452435785,68.2611602 C1.98449663,62.9159045 7.15201779,59.3930489 11.7118093,56.2868388 C14.6740096,54.5706385 17.2658125,52.3545736 19.3539181,49.7526193 C20.7717154,46.7172843 21.5630462,43.4606615 21.6865808,40.152838 C22.3379796,34.7330603 23.011213,29.1100409 27.1452299,25.2721608 C31.2792468,21.4342807 37.3055955,20.8076189 43.1354327,20.1911192 C46.6896217,20.0772382 50.1887085,19.3394062 53.4486404,18.0164333 C56.2471188,16.074999 58.6294766,13.6621143 60.4721023,10.9029751 C63.8091564,6.65861165 67.5938198,1.84855891 73.3326796,0.422479897 C78.8422761,-0.952788701 84.3409553,1.28625697 89.6540404,3.45416806 C92.871805,5.04557828 96.3806463,6.06343855 100,6.45536998 C103.618676,6.07230519 107.128693,5.06365226 110.349599,3.48126695 C115.662684,1.31674322 121.168641,-0.922302451 126.66732,0.449578786 C132.409819,1.8756578 136.194483,6.68909789 139.531537,10.9503981 C141.374665,13.7081204 143.755518,16.1207314 146.55136,18.0638564 C149.811564,19.3855869 153.310625,20.1222642 156.864567,20.2351549 C162.687126,20.8414925 168.73167,21.4681543 172.85477,25.3161965 C176.97787,29.1642387 177.651103,34.7703212 178.313419,40.2002611 C178.43632,43.5078037 179.226393,46.7643289 180.642443,49.8000424 C182.731526,52.4002453 185.32319,54.615043 188.284552,56.3308745 C192.847982,59.440472 198.015503,62.9633275 199.547564,68.3085833 C201.021399,73.4404353 198.619594,78.5553506 196.29057,83.5008977 C194.590225,86.4976478 193.506577,89.7638127 193.095441,93.1311653 C193.506974,96.4995158 194.590587,99.7667241 196.29057,102.76482 C198.619594,107.710367 201.021399,112.821895 199.547564,117.953747 C198.015503,123.299003 192.847982,126.821859 188.288191,129.931456 C185.32495,131.646382 182.732911,133.862648 180.646082,136.465676 C179.22787,139.500884 178.436521,142.757581 178.313419,146.065457 C177.66202,151.485235 176.988787,157.108254 172.85477,160.946134 C168.720753,164.784014 162.694405,165.410676 156.864567,166.027176 C153.310625,166.140066 149.811564,166.876744 146.55136,168.198474 C143.752881,170.139909 141.370523,172.552793 139.527898,175.311932 C136.190844,179.556296 132.40618,184.366349 126.66732,185.792428 C121.150446,187.147372 115.659045,184.928651 110.34596,182.764127 C107.129208,181.168002 103.620318,180.145532 100,179.749375 C96.381324,180.13244 92.8713067,181.141093 89.6504013,182.723478 C85.678931,184.665081 81.3267062,185.839179 76.8553278,186.175199 Z M100,172.964491 C104.635253,173.290161 109.150223,174.493551 113.268156,176.500896 C117.635076,178.275873 121.729063,179.952617 124.789545,179.210785 C128.064735,178.397818 130.775864,174.935935 133.661669,171.270811 C136.05338,167.71684 139.200063,164.655271 142.908621,162.27398 C147.024188,160.435862 151.499317,159.398506 156.060326,159.225355 C160.860298,158.727413 165.390977,158.256569 167.705444,156.09882 C170.019912,153.941071 170.533025,149.720419 171.064333,145.259265 C171.248012,141.013456 172.362576,136.847464 174.339523,133.017342 C176.892436,129.56818 180.173744,126.63949 183.983136,124.410058 C187.920642,121.727268 191.625245,119.190134 192.516824,116.151671 C193.328343,113.313063 191.526989,109.481957 189.605545,105.427286 C187.446584,101.594688 186.151283,97.3920396 185.799047,93.0769675 C186.149134,88.7626124 187.444572,84.560673 189.605545,80.7300364 C191.512433,76.6652031 193.313787,72.8442598 192.498629,70.0022638 C191.628884,66.9536389 187.906085,64.4266675 183.964941,61.7438775 C180.155549,59.5144451 176.874241,56.5857553 174.321327,53.136593 C172.344861,49.3075105 171.230309,45.1427169 171.046138,40.8980574 C170.51119,36.4301282 170.005355,32.2128636 167.68361,30.058502 C165.361864,27.9041403 160.834825,27.4299098 156.038492,26.9319677 C151.477482,26.7588159 147.002353,25.7214607 142.886786,23.8833427 C139.191006,21.5098427 136.052369,18.4615526 133.661669,14.9237727 C130.775864,11.258648 128.053817,7.81031441 124.789545,6.98379831 C121.750897,6.22841679 117.624158,7.90177316 113.268156,9.69368717 C109.150375,11.7013882 104.635325,12.9047991 100,13.2300921 C95.3631125,12.8984812 90.8479802,11.688132 86.7318436,9.67336301 C82.3649243,7.8983858 78.2563811,6.22164207 75.2104549,6.98041095 C71.9352654,7.78999025 69.2241363,11.2552606 66.3383305,14.9203853 C63.943997,18.4687031 60.7976044,21.5253786 57.0913789,23.9036669 C52.9758124,25.7417848 48.5006833,26.7791401 43.9396737,26.9522919 C39.1397016,27.450234 34.6090228,27.9176898 32.2945556,30.0788262 C29.9800884,32.2399625 29.4706144,36.4538397 28.9356668,40.9183816 C28.7517666,45.1652458 27.6372255,49.332303 25.6604774,53.1636919 C23.1075637,56.6128542 19.8262555,59.541544 16.0168639,61.7709764 C12.0757193,64.4537664 8.35655969,66.9908998 7.48317583,70.0259754 C6.67165667,72.864584 8.47301087,76.6956893 10.3944554,80.7503605 C12.553416,84.5829581 13.8487166,88.785607 14.2009533,93.100679 C13.8504402,97.416039 12.5550414,101.619006 10.3944554,105.450998 C8.48756727,109.515831 6.68621306,113.336774 7.50137133,116.17877 C8.37111609,119.227395 12.0939148,121.750979 16.0350594,124.437156 C19.8437812,126.665975 23.1249888,129.593423 25.6786729,133.041054 C27.6551345,136.871338 28.7696736,141.037235 28.9538623,145.282976 C29.4888099,149.750906 29.9946448,153.96817 32.3163902,156.122532 C34.6381356,158.276894 39.1651753,158.751124 43.9615083,159.249066 C48.5222707,159.423821 52.9970574,160.461097 57.1132135,162.297691 C60.8171621,164.675999 63.962137,167.731348 66.356526,171.277585 C69.2423318,174.94271 71.9643782,178.391044 75.2286504,179.21756 C78.2782157,179.979716 82.390398,178.299585 86.7500391,176.507671 C90.8626984,174.503711 95.3712243,173.301541 100,172.974653 L100,172.964491 Z" id="Shape" fill-rule="nonzero"></path>
                <path d="M100,156.321839 C61.2765865,156.321839 29.8850575,126.988771 29.8850575,90.8045977 C29.8850575,54.6204244 61.2765865,25.2873563 100,25.2873563 C138.723413,25.2873563 170.114943,54.6204244 170.114943,90.8045977 C170.076695,126.973957 138.70756,156.2861 100,156.321839 Z M100,32.1325431 C65.3102754,32.1325431 37.1886973,58.4100833 37.1886973,90.8250718 C37.1886973,123.24006 65.3102754,149.517601 100,149.517601 C134.689725,149.517601 162.811303,123.24006 162.811303,90.8250718 C162.777081,58.4233381 134.67554,32.1645207 100,32.1325431 Z" id="Shape" fill-rule="nonzero"></path>
                <path d="M121.187307,121.837765 C120.593168,121.837442 120.008014,121.704079 119.482201,121.449155 L100.014668,112.017737 L80.5471337,121.449155 C79.3085922,122.050829 77.8063642,121.950045 76.6754433,121.189404 C75.5445224,120.428763 74.9823171,119.141039 75.2264723,117.870555 L78.9447016,97.8891975 L63.1770626,83.7437615 C62.1767609,82.8456333 61.8169072,81.5018459 62.2489559,80.2779692 C62.6810046,79.0540925 63.829935,78.1626398 65.2121881,77.9788036 L86.9751968,75.0625324 L96.7144641,56.902577 C97.4000167,55.8304808 98.6496691,55.1724138 100,55.1724138 C101.350331,55.1724138 102.599983,55.8304808 103.285536,56.902577 L113.024803,75.0794285 L134.787812,77.9956997 C136.170065,78.179536 137.318995,79.0709887 137.751044,80.2948653 C138.183093,81.518742 137.823239,82.8625294 136.822937,83.7606576 L121.055298,97.9060937 L124.802863,117.870555 C124.985574,118.852539 124.688742,119.85878 123.991696,120.620365 C123.294649,121.38195 122.268435,121.821252 121.187307,121.820869 L121.187307,121.837765 Z M100.014668,104.819988 C100.610046,104.819764 101.19653,104.953143 101.72344,105.208599 L116.317673,112.281317 L113.534501,97.2978331 C113.330094,96.2021177 113.723612,95.0838508 114.5869,94.307219 L126.394294,83.6998316 L110.076621,81.513473 C108.881464,81.3529283 107.848741,80.6603187 107.315451,79.6616577 L100.014668,66.0332431 L92.713884,79.6616577 C92.1805944,80.6603187 91.1478709,81.3529283 89.9527137,81.513473 L73.6350408,83.6998316 L85.4424356,94.307219 C86.3057227,95.0838508 86.6992412,96.2021177 86.4948338,97.2978331 L83.7116622,112.281317 L98.3058955,105.208599 C98.8328055,104.953143 99.4192891,104.819764 100.014668,104.819988 Z" id="Shape" fill-rule="nonzero"></path>
                <path d="M127.514997,236.781609 C127.405355,236.781609 127.292058,236.781609 127.182416,236.781609 C125.783751,236.659974 124.58189,235.784618 124.090511,234.529669 L101.383645,176.474229 C101.22981,176.085357 101.15058,175.673257 101.149742,175.257624 C101.125692,173.501875 102.474488,172.003115 104.297624,171.75975 C106.12076,171.516385 107.849097,172.604388 108.331295,174.29898 L128.282491,225.277889 L142.857573,202.019459 C143.73437,200.620732 145.510168,199.988091 147.133612,200.496088 L174.178648,208.953065 L155.360419,160.958151 C154.705009,159.168313 155.669422,157.207012 157.531293,156.543302 C159.393165,155.879592 161.469791,156.756839 162.205737,158.517968 L183.677303,213.310535 C184.168214,214.56528 183.862086,215.977342 182.8897,216.943473 C181.917315,217.909603 180.450616,218.258964 179.116194,217.842303 L147.634311,207.994422 L130.650759,235.087425 C129.990373,236.138624 128.799796,236.781866 127.514997,236.781609 Z" id="Path"></path>
                <path d="M72.4700721,236.781609 C71.1848748,236.781133 69.9944463,236.136504 69.3351401,235.084013 L52.3560853,207.992183 L20.8825372,217.839638 C19.5484686,218.25628 18.0821581,217.906935 17.1100299,216.940846 C16.1379017,215.974758 15.8318549,214.562757 16.3226362,213.308066 L37.7885167,158.517873 C38.5242678,156.75682 40.600344,155.879611 42.4617228,156.543292 C44.3231017,157.206974 45.2872592,159.16819 44.6320221,160.95795 L25.8260839,208.957756 L52.8639589,200.501146 C54.4869728,199.993171 56.262301,200.625785 57.1388662,202.024451 L71.702781,225.278388 L91.7473463,174.036765 C92.1839914,172.844081 93.2628647,171.970139 94.5672699,171.752483 C95.8716751,171.534827 97.1974257,172.007529 98.0324734,172.988014 C98.8675211,173.9685 99.0811508,175.303289 98.5908517,176.476842 L75.8936517,234.515823 C75.4024021,235.770718 74.2008596,236.646036 72.8025649,236.767666 C72.6929519,236.781609 72.5796851,236.781609 72.4700721,236.781609 Z" id="Path"></path>
            </g>
        </g>
    </g>
</svg>