<?xml version="1.0" encoding="UTF-8"?>
<svg width="40px" height="40px" viewBox="0 0 40 40" version="1.1" xmlns="http://www.w3.org/2000/svg" xmlns:xlink="http://www.w3.org/1999/xlink">
    <!-- Generator: Sketch 52.6 (67491) - http://www.bohemiancoding.com/sketch -->
    <title>youtube</title>
    <desc>Created with Sketch.</desc>
    <g id="Page-1" stroke="none" stroke-width="1" fill="none" fill-rule="evenodd">
        <g id="Desktop-HD-Copy-9" transform="translate(-700.000000, -6088.000000)">
            <g id="Group-25" transform="translate(0.000000, 6046.000000)">
                <g id="Group-18" transform="translate(640.000000, 42.000000)">
                    <g id="youtube" transform="translate(60.000000, 0.000000)">
                        <circle id="Oval" fill="#00A9C3" cx="20" cy="20" r="20"></circle>
                        <path d="M30.0669531,13.3077344 C29.4671875,13.4907812 28.8417969,13.6480469 28.2154687,13.8046875 C23.7710156,14.7474219 17.8450781,12.1885156 15.2861719,16.3635937 C13.1520313,19.6834375 12.4782031,23.8376562 10.0504688,26.8060156 L23.0178906,39.7734375 C31.6483594,38.4671875 38.4689063,31.645625 39.7738281,23.0147656 L30.0669531,13.3077344 Z" id="Path" fill="#0099B0"></path>
                        <path d="M26.6913281,11.9010156 L13.3086719,11.9010156 C10.6830469,11.9010156 8.55460937,14.0295312 8.55460937,16.6550781 L8.55460937,23.3450781 C8.55460937,25.9707031 10.683125,28.0991406 13.3086719,28.0991406 L26.6913281,28.0991406 C29.3169531,28.0991406 31.4453906,25.970625 31.4453906,23.3450781 L31.4453906,16.6550781 C31.4453906,14.0295312 29.316875,11.9010156 26.6913281,11.9010156 Z M23.4760938,20.3255469 L17.2167188,23.3108594 C17.0498438,23.3904687 16.8571094,23.2689844 16.8571094,23.0842187 L16.8571094,16.926875 C16.8571094,16.739375 17.0549219,16.6178906 17.2219531,16.7026562 L23.4813281,19.8746094 C23.6677344,19.9689062 23.664375,20.2358594 23.4760938,20.3255469 Z" id="Shape" fill="#FFFFFF" fill-rule="nonzero"></path>
                        <path d="M26.6913281,11.9010156 L19.8653125,11.9010156 L19.8653125,18.0420313 L23.4814844,19.8744531 C23.6677344,19.9688281 23.664375,20.2357031 23.4760937,20.3254687 L19.8653125,22.0476562 L19.8653125,28.0991406 L26.6913281,28.0991406 C29.3169531,28.0991406 31.4453906,25.970625 31.4453906,23.3450781 L31.4453906,16.6550781 C31.4453906,14.0295312 29.316875,11.9010156 26.6913281,11.9010156 Z" id="Path" fill="#D1D1D1"></path>
                    </g>
                </g>
            </g>
        </g>
    </g>
</svg>