<?xml version="1.0" encoding="UTF-8"?>
<svg width="24px" height="18px" viewBox="0 0 24 18" version="1.1" xmlns="http://www.w3.org/2000/svg" xmlns:xlink="http://www.w3.org/1999/xlink">
    <!-- Generator: Sketch 52.6 (67491) - http://www.bohemiancoding.com/sketch -->
    <title>Shape</title>
    <desc>Created with Sketch.</desc>
    <g id="Page-1" stroke="none" stroke-width="1" fill="none" fill-rule="evenodd">
        <g id="Home-page" transform="translate(-1278.000000, -4408.000000)" fill="#FFFFFF" fill-rule="nonzero">
            <g id="Group-10" transform="translate(70.000000, 4158.000000)">
                <g id="Social-icon" transform="translate(1140.000000, 239.000000)">
                    <g id="Group-12" transform="translate(60.000000, 0.000000)">
                        <path d="M26.6913281,11.9010156 L13.3086719,11.9010156 C10.6830469,11.9010156 8.55460938,14.0295312 8.55460938,16.6550781 L8.55460938,23.3450781 C8.55460938,25.9707031 10.683125,28.0991406 13.3086719,28.0991406 L26.6913281,28.0991406 C29.3169531,28.0991406 31.4453906,25.970625 31.4453906,23.3450781 L31.4453906,16.6550781 C31.4453906,14.0295312 29.316875,11.9010156 26.6913281,11.9010156 Z M23.4760938,20.3255469 L17.2167188,23.3108594 C17.0498438,23.3904687 16.8571094,23.2689844 16.8571094,23.0842187 L16.8571094,16.926875 C16.8571094,16.739375 17.0549219,16.6178906 17.2219531,16.7026562 L23.4813281,19.8746094 C23.6677344,19.9689062 23.664375,20.2358594 23.4760938,20.3255469 Z" id="Shape"></path>
                    </g>
                </g>
            </g>
        </g>
    </g>
</svg>